<svg width="331" height="29" viewBox="0 0 331 29" fill="none" xmlns="http://www.w3.org/2000/svg">
<path d="M312.608 0.203369L297.798 21.6274C295.847 24.4458 292.684 27.1603 288.866 27.4526V28.1117H305.338C309.712 28.1117 312.9 25.2641 315.063 22.1307L330.269 0.203369H312.608Z" fill="#E30613"/>
<path d="M39.8629 28.1117V2.55425H47.3181V28.1085H39.8629V28.1117ZM211.826 28.1117L193.909 12.9351V28.1117H187.613V2.55425H192.961L210.638 17.4907V2.55425H216.934V28.1085H211.826V28.1117ZM250.791 10.8017C247.421 9.1425 243.625 7.79823 238.592 7.79823C232.585 7.79823 228.107 10.9057 228.107 15.2275C228.107 19.6532 232.666 22.7898 238.54 22.7898C243.388 22.7898 247.235 21.5495 251.028 19.3642V25.6862C247.684 27.3454 243.229 28.5826 238.225 28.5826C228.003 28.5826 219.967 23.3646 219.967 15.2242C219.967 7.21376 228.159 2.07693 238.199 2.07693C242.94 2.07693 247.235 2.97312 250.791 4.4213V10.8017ZM88.8154 28.1117V2.55425H113.74V8.03526H96.2738V14.3832H113.347V19.8642H96.2738V28.1117H88.8154ZM255.298 28.1117V2.55425H281.17V8.03526H262.753V12.461H280.878V17.942H262.753V22.6307H281.089V28.1117H255.298ZM139.638 18.52L149.941 28.1085H141.986C140.219 28.1085 139.06 27.5565 138.138 26.6603L131.131 19.8642C130.998 19.7344 130.79 19.6532 130.524 19.6532H125.754V28.1117H118.299V2.55425H134.449C142.827 2.55425 146.356 6.32082 146.356 10.4835C146.356 15.3346 142.034 17.653 139.638 18.52ZM133.683 14.3053C136.635 14.3053 138.057 12.8019 138.057 11.1167C138.057 9.43149 136.79 8.03526 133.683 8.03526H125.754V14.3053H133.683ZM75.6421 18.52L85.9418 28.1085H77.9865C76.2201 28.1085 75.0609 27.5565 74.1387 26.6603L67.1316 19.8642C66.9985 19.7344 66.7874 19.6532 66.5244 19.6532H61.7545V28.1117H54.2993V2.55425H70.4501C78.8275 2.55425 82.357 6.32082 82.357 10.4835C82.3603 15.3346 78.0384 17.653 75.6421 18.52ZM69.687 14.3053C72.6386 14.3053 74.0608 12.8019 74.0608 11.1167C74.0608 9.43149 72.7945 8.03526 69.687 8.03526H61.7578V14.3053H69.687ZM28.1931 28.1117L24.9265 22.5009H10.646L7.66848 28.1117H0.554199L14.7795 2.58347H21.2606L37.3854 28.1117H28.1931ZM13.4904 17.1789H21.8159L17.494 9.37954L13.4904 17.1789ZM177.077 28.1117L173.888 22.5009H159.978L157.107 28.1117H150.178L164.036 2.58347H170.332L186.009 28.1117H177.077ZM162.77 17.1789H170.884L166.67 9.37954L162.77 17.1789Z" fill="#052453"/>
</svg>
