<svg width="233" height="54" viewBox="0 0 233 54" fill="none" xmlns="http://www.w3.org/2000/svg">
<path d="M206.561 16.459L197.5 31.2494C196.306 33.1951 194.371 35.0692 192.035 35.2709V35.726H202.113C204.789 35.726 206.74 33.76 208.063 31.5968L217.367 16.459H206.561Z" fill="#E30613"/>
<path d="M39.6855 35.7255V18.0815H44.2468V35.7233H39.6855V35.7255ZM144.899 35.7255L133.937 25.248V35.7255H130.085V18.0815H133.357L144.172 28.3931V18.0815H148.024V35.7233H144.899V35.7255ZM168.739 23.7753C166.677 22.6298 164.355 21.7017 161.275 21.7017C157.6 21.7017 154.86 23.847 154.86 26.8306C154.86 29.886 157.65 32.0514 161.244 32.0514C164.21 32.0514 166.564 31.1951 168.884 29.6865V34.051C166.838 35.1965 164.112 36.0505 161.051 36.0505C154.797 36.0505 149.88 32.4482 149.88 26.8284C149.88 21.2982 154.892 17.752 161.035 17.752C163.935 17.752 166.564 18.3706 168.739 19.3704V23.7753ZM69.6364 35.7255V18.0815H84.8861V21.8654H74.1998V26.2478H84.6457V30.0317H74.1998V35.7255H69.6364ZM171.497 35.7255V18.0815H187.326V21.8654H176.058V24.9208H187.148V28.7047H176.058V31.9416H187.277V35.7255H171.497ZM100.732 29.1037L107.035 35.7233H102.168C101.087 35.7233 100.378 35.3422 99.8139 34.7235L95.5266 30.0317C95.4452 29.942 95.318 29.886 95.1551 29.886H92.2367V35.7255H87.6753V18.0815H97.557C102.683 18.0815 104.842 20.6818 104.842 23.5556C104.842 26.9046 102.198 28.5052 100.732 29.1037ZM97.0882 26.194C98.894 26.194 99.7642 25.1561 99.7642 23.9927C99.7642 22.8293 98.9894 21.8654 97.0882 21.8654H92.2367V26.194H97.0882ZM61.5765 29.1037L67.8782 35.7233H63.0109C61.9301 35.7233 61.2209 35.3422 60.6567 34.7235L56.3695 30.0317C56.288 29.942 56.1589 29.886 55.998 29.886H53.0795V35.7255H48.5182V18.0815H58.3998C63.5254 18.0815 65.6849 20.6818 65.6849 23.5556C65.6869 26.9046 63.0427 28.5052 61.5765 29.1037ZM57.933 26.194C59.7388 26.194 60.609 25.1561 60.609 23.9927C60.609 22.8293 59.8342 21.8654 57.933 21.8654H53.0815V26.194H57.933ZM32.5454 35.7255L30.5468 31.8519H21.8094L19.9877 35.7255H15.6349L24.3385 18.1017H28.3039L38.1696 35.7255H32.5454ZM23.5498 28.1779H28.6436L25.9993 22.7934L23.5498 28.1779ZM123.638 35.7255L121.687 31.8519H113.176L111.42 35.7255H107.18L115.659 18.1017H119.512L129.103 35.7255H123.638ZM114.885 28.1779H119.849L117.271 22.7934L114.885 28.1779Z" fill="#052453"/>
</svg>
