<svg width="22" height="22" viewBox="0 0 22 22" fill="none" xmlns="http://www.w3.org/2000/svg">
<path fill-rule="evenodd" clip-rule="evenodd" d="M2.49997 10.945C2.49997 14.7806 6.18289 17.8899 10.726 17.8899C11.3787 17.8899 12.0137 17.8257 12.6225 17.7044C13.0974 18.0635 13.6028 18.3299 14.0401 18.5603C14.1149 18.5997 14.1878 18.6381 14.2582 18.6758C15.4279 19.3012 17.7118 19.2726 18.1294 19.2341C17.0149 18.35 16.7008 16.9037 16.6464 15.7667C18.0739 14.5176 18.952 12.8178 18.952 10.945C18.952 7.10936 15.2691 4 10.726 4C6.18289 4 2.49997 7.10936 2.49997 10.945Z" fill="white"/>
<mask id="mask0" mask-type="alpha" maskUnits="userSpaceOnUse" x="2" y="4" width="17" height="16">
<path fill-rule="evenodd" clip-rule="evenodd" d="M2.49997 10.945C2.49997 14.7806 6.18289 17.8899 10.726 17.8899C11.3787 17.8899 12.0137 17.8257 12.6225 17.7044C13.0974 18.0635 13.6028 18.3299 14.0401 18.5603C14.1149 18.5997 14.1878 18.6381 14.2582 18.6758C15.4279 19.3012 17.7118 19.2726 18.1294 19.2341C17.0149 18.35 16.7008 16.9037 16.6464 15.7667C18.0739 14.5176 18.952 12.8178 18.952 10.945C18.952 7.10936 15.2691 4 10.726 4C6.18289 4 2.49997 7.10936 2.49997 10.945Z" fill="white"/>
</mask>
<g mask="url(#mask0)">
</g>
</svg>
