<svg width="22" height="22" viewBox="0 0 22 22" fill="none" xmlns="http://www.w3.org/2000/svg">
<path fill-rule="evenodd" clip-rule="evenodd" d="M14.4581 6.67018C14.3365 6.2974 17.7213 2.85968 15.7474 0.074881C15.2845 -0.576928 13.7187 3.19386 11.4936 4.90003C10.266 5.8419 7.26711 7.77527 7.26711 8.88258V16.0514C7.26711 17.3848 11.9382 18.8682 15.3817 18.8682C16.6427 18.8682 18.4698 9.87959 18.4698 8.45135C18.4698 7.01869 14.5796 7.04295 14.4581 6.67018ZM3 9.8702V14.9512C3 17.8044 5.43277 18.0845 6.03843 18.0845C6.64511 18.0845 4.70684 17.1607 4.70684 15.3928V8.88749C4.70583 7.03463 6.64511 6.50528 6.03843 6.50528C5.43277 6.50528 3 7.01702 3 9.8702Z" fill="white"/>
<mask id="mask1" mask-type="alpha" maskUnits="userSpaceOnUse" x="3" y="0" width="16" height="19">
<path fill-rule="evenodd" clip-rule="evenodd" d="M14.4581 6.67018C14.3365 6.2974 17.7213 2.85968 15.7474 0.074881C15.2845 -0.576928 13.7187 3.19386 11.4936 4.90003C10.266 5.8419 7.26711 7.77527 7.26711 8.88258V16.0514C7.26711 17.3848 11.9382 18.8682 15.3817 18.8682C16.6427 18.8682 18.4698 9.87959 18.4698 8.45135C18.4698 7.01869 14.5796 7.04295 14.4581 6.67018ZM3 9.8702V14.9512C3 17.8044 5.43277 18.0845 6.03843 18.0845C6.64511 18.0845 4.70684 17.1607 4.70684 15.3928V8.88749C4.70583 7.03463 6.64511 6.50528 6.03843 6.50528C5.43277 6.50528 3 7.01702 3 9.8702Z" fill="white"/>
</mask>
<g mask="url(#mask1)">
</g>
</svg>
